<mxfile host="Electron" modified="2024-01-11T09:57:00.319Z" agent="Mozilla/5.0 (Windows NT 10.0; Win64; x64) AppleWebKit/537.36 (KHTML, like Gecko) draw.io/22.1.18 Chrome/120.0.6099.199 Electron/28.1.2 Safari/537.36" etag="fUF-nXuhnVgm2hVaUyqB" version="22.1.18" type="device">
  <diagram id="x9ZULwLbYu8r6fALNWjj" name="Page-1">
    <mxGraphModel dx="971" dy="490" grid="1" gridSize="10" guides="1" tooltips="1" connect="1" arrows="1" fold="1" page="1" pageScale="1" pageWidth="1600" pageHeight="1200" math="0" shadow="0">
      <root>
        <mxCell id="0" />
        <mxCell id="1" parent="0" />
        <mxCell id="p4cOC2n5GGfGO9wY-WG2-15" value="" style="ellipse;html=1;shape=startState;fillColor=#000000;strokeColor=#ff0000;" parent="1" vertex="1">
          <mxGeometry x="330" y="70" width="30" height="30" as="geometry" />
        </mxCell>
        <mxCell id="p4cOC2n5GGfGO9wY-WG2-16" value="" style="edgeStyle=orthogonalEdgeStyle;html=1;verticalAlign=bottom;endArrow=open;endSize=8;strokeColor=#ff0000;" parent="1" source="p4cOC2n5GGfGO9wY-WG2-15" edge="1">
          <mxGeometry relative="1" as="geometry">
            <mxPoint x="345" y="160" as="targetPoint" />
          </mxGeometry>
        </mxCell>
        <mxCell id="p4cOC2n5GGfGO9wY-WG2-17" value="enter user name and password&amp;nbsp;" style="rounded=1;whiteSpace=wrap;html=1;" parent="1" vertex="1">
          <mxGeometry x="282.5" y="160" width="125" height="60" as="geometry" />
        </mxCell>
        <mxCell id="p4cOC2n5GGfGO9wY-WG2-18" value="Validate Username &lt;br&gt;and password&amp;nbsp;" style="rhombus;whiteSpace=wrap;html=1;" parent="1" vertex="1">
          <mxGeometry x="275" y="280" width="140" height="110" as="geometry" />
        </mxCell>
        <mxCell id="p4cOC2n5GGfGO9wY-WG2-19" value="" style="endArrow=classic;html=1;entryX=0.5;entryY=0;entryDx=0;entryDy=0;exitX=0.5;exitY=1;exitDx=0;exitDy=0;" parent="1" source="p4cOC2n5GGfGO9wY-WG2-17" target="p4cOC2n5GGfGO9wY-WG2-18" edge="1">
          <mxGeometry width="50" height="50" relative="1" as="geometry">
            <mxPoint x="340" y="230" as="sourcePoint" />
            <mxPoint x="330" y="250" as="targetPoint" />
          </mxGeometry>
        </mxCell>
        <mxCell id="p4cOC2n5GGfGO9wY-WG2-20" value="&lt;span style=&quot;font-size: 14px&quot;&gt;Error Message&amp;nbsp;&lt;/span&gt;" style="rounded=1;whiteSpace=wrap;html=1;" parent="1" vertex="1">
          <mxGeometry x="550" y="305" width="120" height="60" as="geometry" />
        </mxCell>
        <mxCell id="p4cOC2n5GGfGO9wY-WG2-21" value="&lt;font style=&quot;font-size: 14px&quot;&gt;Invalid&lt;/font&gt;" style="endArrow=classic;html=1;entryX=0;entryY=0.5;entryDx=0;entryDy=0;exitX=1;exitY=0.5;exitDx=0;exitDy=0;" parent="1" source="p4cOC2n5GGfGO9wY-WG2-18" target="p4cOC2n5GGfGO9wY-WG2-20" edge="1">
          <mxGeometry width="50" height="50" relative="1" as="geometry">
            <mxPoint x="435" y="355" as="sourcePoint" />
            <mxPoint x="485" y="305" as="targetPoint" />
            <Array as="points">
              <mxPoint x="480" y="335" />
            </Array>
          </mxGeometry>
        </mxCell>
        <mxCell id="p4cOC2n5GGfGO9wY-WG2-23" value="successfully signed in" style="rounded=1;whiteSpace=wrap;html=1;" parent="1" vertex="1">
          <mxGeometry x="285" y="460" width="120" height="60" as="geometry" />
        </mxCell>
        <mxCell id="p4cOC2n5GGfGO9wY-WG2-24" value="&lt;font style=&quot;font-size: 14px&quot;&gt;Valid&lt;/font&gt;" style="endArrow=classic;html=1;exitX=0.5;exitY=1;exitDx=0;exitDy=0;entryX=0.5;entryY=0;entryDx=0;entryDy=0;" parent="1" source="p4cOC2n5GGfGO9wY-WG2-18" target="p4cOC2n5GGfGO9wY-WG2-23" edge="1">
          <mxGeometry width="50" height="50" relative="1" as="geometry">
            <mxPoint x="300" y="450" as="sourcePoint" />
            <mxPoint x="350" y="400" as="targetPoint" />
            <Array as="points" />
          </mxGeometry>
        </mxCell>
        <mxCell id="p4cOC2n5GGfGO9wY-WG2-26" value="" style="endArrow=classic;html=1;exitX=0.5;exitY=1;exitDx=0;exitDy=0;" parent="1" source="p4cOC2n5GGfGO9wY-WG2-23" target="p4cOC2n5GGfGO9wY-WG2-27" edge="1">
          <mxGeometry width="50" height="50" relative="1" as="geometry">
            <mxPoint x="285" y="585" as="sourcePoint" />
            <mxPoint x="345" y="610" as="targetPoint" />
          </mxGeometry>
        </mxCell>
        <mxCell id="p4cOC2n5GGfGO9wY-WG2-27" value="" style="ellipse;html=1;shape=endState;fillColor=#000000;strokeColor=#ff0000;" parent="1" vertex="1">
          <mxGeometry x="330" y="610" width="30" height="30" as="geometry" />
        </mxCell>
        <mxCell id="p4cOC2n5GGfGO9wY-WG2-30" value="&lt;font style=&quot;font-size: 14px&quot;&gt;Clear Fields&lt;/font&gt;" style="rounded=1;whiteSpace=wrap;html=1;" parent="1" vertex="1">
          <mxGeometry x="542.5" y="410" width="135" height="50" as="geometry" />
        </mxCell>
        <mxCell id="p4cOC2n5GGfGO9wY-WG2-34" value="" style="endArrow=classic;html=1;entryX=1;entryY=0.5;entryDx=0;entryDy=0;exitX=1;exitY=0.5;exitDx=0;exitDy=0;" parent="1" source="p4cOC2n5GGfGO9wY-WG2-30" target="p4cOC2n5GGfGO9wY-WG2-17" edge="1">
          <mxGeometry width="50" height="50" relative="1" as="geometry">
            <mxPoint x="355" y="230" as="sourcePoint" />
            <mxPoint x="355" y="290" as="targetPoint" />
            <Array as="points">
              <mxPoint x="740" y="435" />
              <mxPoint x="740" y="190" />
            </Array>
          </mxGeometry>
        </mxCell>
        <mxCell id="p4cOC2n5GGfGO9wY-WG2-35" value="" style="endArrow=classic;html=1;entryX=0.5;entryY=0;entryDx=0;entryDy=0;exitX=0.5;exitY=1;exitDx=0;exitDy=0;" parent="1" source="p4cOC2n5GGfGO9wY-WG2-20" target="p4cOC2n5GGfGO9wY-WG2-30" edge="1">
          <mxGeometry width="50" height="50" relative="1" as="geometry">
            <mxPoint x="740" y="390" as="sourcePoint" />
            <mxPoint x="365" y="300" as="targetPoint" />
          </mxGeometry>
        </mxCell>
      </root>
    </mxGraphModel>
  </diagram>
</mxfile>
